<?xml version="1.0" encoding="utf-8"?>
<!-- Generator: Adobe Illustrator 19.2.1, SVG Export Plug-In . SVG Version: 6.00 Build 0)  -->
<svg version="1.1" id="layer" xmlns="http://www.w3.org/2000/svg" xmlns:xlink="http://www.w3.org/1999/xlink" x="0px" y="0px"
	 viewBox="0 0 652 652" style="enable-background:new 0 0 652 652;" xml:space="preserve">
<style type="text/css">
	.st0{fill:url(#SVGID_2_);}
	.st1{fill:url(#SVGID_4_);}
	.st2{fill:url(#SVGID_5_);}
	.st3{fill:#444444;}
</style>
<g>
	<g>
		<g>
			
				<linearGradient id="SVGID_2_" gradientUnits="userSpaceOnUse" x1="208.5903" y1="333.7029" x2="428.6253" y2="333.7029" gradientTransform="matrix(1 0 0 -1 0 652)">
				<stop  offset="1" style="stop-color:#00AEEF"/>
				<stop  offset="1" style="stop-color:#00AEEF"/>
			</linearGradient>
			<path id="SVGID_1_" class="st0" d="M415.4,334.5h-15.1c-3.8,0-6.5,0.8-8.6,2.3c-2.1,1.5-2.9,3.8-2.9,6.7c0,5.9,3.8,8.8,11.6,8.8
				c2.7,0,5-0.2,6.7-0.6c1.7-0.6,3.6-1.5,5-2.9c1.7-1.7,2.7-5,2.7-9.5v-5h0.6C415.4,334.3,415.4,334.5,415.4,334.5z M415.8,362.6
				V357c-2.3,2.3-4.6,4.2-7.4,5c-2.7,0.8-5.7,1.5-9.7,1.5c-3.8,0-7.1-0.6-10.1-1.5c-2.9-0.8-5.3-2.3-7.1-4.4c-3.2-3.6-5-8-5-13.7
				c0-3.6,0.8-6.7,2.7-9.5c1.7-2.7,4.2-5,7.4-6.5c3.2-1.5,7.4-2.3,12.2-2.3h16.8v-4.4c0-4.2-1.3-7.1-3.2-8.8
				c-2.1-1.7-5.7-2.9-10.7-2.9c-3.6,0-6.3,0.6-8.2,1.5c-1.9,0.8-3.8,2.3-5.7,4.6l-8.2-8c2.9-3.6,6.3-5.9,9.5-7.1
				c3.6-1.5,8-2.1,13.2-2.1c17.4,0,26.3,7.4,26.3,21.9v42.5H416l0,0H415.8z M366.2,351.7h5.3v10.9h-7.8c-3.8,0-7.1-0.8-9.5-2.3
				c-2.7-1.7-4.6-3.8-5.9-6.5c-1.3-2.7-2.1-5.7-2.1-8.8v-35.3h-6.9V300h7.1v-19.1h12.6V300h12.4v9.7h-12.4v34.3
				C359.1,349.4,361.4,351.7,366.2,351.7z M318.5,334.5h-14.9c-3.8,0-6.5,0.8-8.6,2.3c-2.1,1.5-2.9,3.8-2.9,6.7
				c0,5.9,3.8,8.8,11.6,8.8c2.7,0,5-0.2,6.7-0.6c1.7-0.6,3.6-1.5,5-2.9c1.7-1.7,2.7-5,2.7-9.5v-5h0.4V334.5z M318.9,362.6V357
				c-2.3,2.3-4.6,4.2-7.4,5c-2.7,0.8-5.7,1.5-9.7,1.5c-3.8,0-7.1-0.6-10.1-1.5c-2.9-0.8-5.3-2.3-7.1-4.4c-3.2-3.6-5-8-5-13.7
				c0-3.6,0.8-6.7,2.7-9.5c1.7-2.7,4.2-5,7.4-6.5s7.4-2.3,12.2-2.3h16.8v-4.4c0-4.2-1.3-7.1-3.2-8.8c-2.1-1.7-5.7-2.9-10.7-2.9
				c-3.6,0-6.3,0.6-8.2,1.5c-2.1,0.8-3.8,2.3-5.7,4.6l-8.2-8c2.9-3.6,6.3-5.9,9.5-7.1c3.6-1.5,8-2.1,13.2-2.1
				c17.4,0,26.3,7.4,26.3,21.9v42.5h-12.6l0,0H318.9z M258.6,305.3c-0.2-2.7-0.6-5.3-1.3-8c-0.6-2.3-1.7-4.4-3.2-6.3
				c-3.6-4.2-8.8-6.3-15.1-6.3h-16.8v65.1h16.6c6.5,0,11.6-2.1,15.1-5.9c2.1-2.3,3.6-5.7,3.8-9.5c0.6-4.2,0.8-9.7,0.8-17.4
				C258.6,312.2,258.6,308.2,258.6,305.3z M271.6,334.3c-0.2,3.6-1.3,7.1-2.7,10.7c-1.3,3.6-3.2,6.5-5.9,9.2
				c-5.7,5.7-13.2,8.2-23.1,8.2h-31.3v-89.3h31.3c9.7,0,17.4,2.7,23.1,8.2c2.7,2.7,4.6,5.7,5.9,8.8c1.3,3.2,2.1,6.7,2.7,10.1
				c0.2,3.6,0.6,7.4,0.6,12.2v4.4v4.4C272.3,326.5,272.3,330.7,271.6,334.3z"/>
		</g>
	</g>
	<g>
		<g>
			
				<linearGradient id="SVGID_4_" gradientUnits="userSpaceOnUse" x1="441.2348" y1="334.1233" x2="621.55" y2="334.1233" gradientTransform="matrix(1 0 0 -1 0 652)">
				<stop  offset="1" style="stop-color:#444444"/>
				<stop  offset="1" style="stop-color:#00AEEF"/>
			</linearGradient>
			<path id="SVGID_3_" class="st1" d="M615,322.1c-0.2-1.3-0.8-2.9-1.5-5c-1.3-3.2-3.2-5.7-6.3-7.4c-3.2-1.7-5.9-2.7-9.5-2.7
				c-3.6,0-6.5,0.8-9.5,2.7s-5,4.4-6.3,7.4c-0.8,2.1-1.3,3.6-1.5,5s-0.6,3.6-0.6,6.3h35.5C615.2,325.7,615.2,323.3,615,322.1z
				 M579.9,333.6c0,7.8,1.7,13.7,5,17.7c3.2,4.2,8.2,6.3,14.5,6.3c3.6,0,6.5-0.6,8.8-1.7c2.3-1.3,5-2.9,7.8-5.7l4.6,3.8
				c-3.2,3.2-6.5,5.7-9.7,7.1c-3.2,1.5-7.4,2.1-12.2,2.1c-5.7,0-10.3-1.3-14.1-3.6s-6.7-5.9-8.6-10.3c-2.1-4.6-2.9-10.3-2.9-17
				c0-5,0.6-9.2,1.7-13c1.3-3.8,2.7-7.1,4.6-9.7c2.1-2.7,4.6-4.6,7.8-6.3c3.2-1.7,6.5-2.1,10.1-2.1c3.8,0,7.1,0.6,10.1,2.1
				c2.9,1.3,5.7,3.2,7.8,5.9c2.1,2.7,3.8,5.7,4.6,9.2c1.3,3.6,1.7,7.8,1.7,12.4v2.9h-41.6L579.9,333.6L579.9,333.6z M559.8,357h4.4
				v5.7h-5.7c-2.9,0-5.7-0.6-8-2.1c-2.1-1.5-3.8-3.2-5-5.7c-1.3-2.3-1.7-5-1.7-8.2v-39.9h-8.2v-4.6h8.2V283h6.5v19.1H564v4.6h-13.7
				v39.9C550.3,353.4,553.7,357,559.8,357z M524.5,362.6h-6.5v-60.5h6.5V362.6z M517.3,281.1v-8h8v8H517.3z M487.5,284
				c-4.2-3.8-9.2-5.7-15.1-5.7c-3.2,0-6.3,0.6-9.2,1.7c-2.9,1.1-5.7,2.9-7.8,5c-1.5,1.5-2.9,3.2-3.8,5c-0.8,1.9-1.5,3.8-2.1,6.5
				c-0.6,2.7-0.8,5.7-0.8,8.8s-0.2,7.4-0.2,12.2c0,7.1,0,12.4,0.2,16.2c0.2,3.8,0.8,6.7,1.7,9.5s2.3,5,4.4,6.7
				c2.3,2.3,4.6,3.8,7.8,5c2.9,1.3,5.9,1.7,9.2,1.7c3.8,0,7.8-0.8,10.9-2.3s5.9-3.8,8.2-7.1c2.3-2.9,3.8-6.5,4.6-10.7h6.5
				c-0.8,5.3-2.9,10.1-5.7,13.9c-2.7,3.8-6.3,6.7-10.7,8.8c-4.2,2.1-8.8,3.2-14.1,3.2c-4.2,0-8.2-0.8-12.2-2.3
				c-4-1.5-7.4-3.8-10.1-6.7c-2.7-2.7-4.4-5.3-5.7-8.2c-1.3-2.9-1.7-6.3-2.1-10.1c-0.2-3.8-0.2-9.7-0.2-17.7s0-13.9,0.2-17.7
				s0.8-7.1,2.1-10.1c1.3-2.9,2.9-5.7,5.7-8.2c2.9-2.9,6.3-5,10.1-6.7c4.2-1.5,8.2-2.3,12.6-2.3c5.3,0,10.1,1.3,14.1,3.2
				c4.2,2.1,7.8,5,10.7,8.8c2.7,3.8,4.6,8.6,5.7,13.9h-6.7C494.6,292.2,491.7,287.6,487.5,284z"/>
		</g>
	</g>
</g>
<linearGradient id="SVGID_5_" gradientUnits="userSpaceOnUse" x1="21.55" y1="37.6871" x2="175.7357" y2="37.6871" gradientTransform="matrix(1 0 0 1 0 281.67)">
	<stop  offset="1" style="stop-color:#00AEEF"/>
	<stop  offset="1" style="stop-color:#004968"/>
</linearGradient>
<path class="st2" d="M21.5,350c1.1,0.2,2.1,0.4,3.4,0.6c55.9,11.1,139.1-3.6,149.8-30.7c8.4-21.9-38.5-37.4-93.3-35.5
	c-1.1,0-2.1,0-3.2,0.2c29.2,2.9,55.5,14.5,45,32.6C111.7,337,63,350.2,21.5,350"/>
<path class="st3" d="M143.9,349.8c-9.7,58.8-60.5,23.7-72.5-17.2c-17.4-42.5-1.9-97.1,41.6-65.1C77,251,73.2,298.8,88.6,332.8
	c12.8,28.4,40.6,46.7,54,17.4C143.2,350,143.7,350,143.9,349.8z"/>
</svg>
